<svg width="128" height="128" viewBox="0 0 128 128" xmlns="http://www.w3.org/2000/svg">
  <!-- 背景圆形 -->
  <circle cx="64" cy="64" r="60" fill="#f8f9fa" stroke="#dee2e6" stroke-width="2"/>
  
  <!-- 文档背景 -->
  <rect x="30" y="25" width="50" height="65" rx="4" ry="4" fill="#ffffff" stroke="#adb5bd" stroke-width="1.5"/>
  
  <!-- 文档折角 -->
  <path d="M 70 25 L 80 25 L 80 35 L 70 35 Z" fill="#e9ecef" stroke="#adb5bd" stroke-width="1.5"/>
  <path d="M 70 25 L 80 35 L 70 35 Z" fill="#dee2e6"/>
  
  <!-- OCR识别文本线条 -->
  <rect x="36" y="35" width="32" height="2" rx="1" fill="#6c757d"/>
  <rect x="36" y="42" width="28" height="2" rx="1" fill="#6c757d"/>
  <rect x="36" y="49" width="30" height="2" rx="1" fill="#6c757d"/>
  <rect x="36" y="56" width="26" height="2" rx="1" fill="#6c757d"/>
  <rect x="36" y="63" width="31" height="2" rx="1" fill="#6c757d"/>
  <rect x="36" y="70" width="24" height="2" rx="1" fill="#6c757d"/>
  
  <!-- 百度风格的眼睛元素（简化） -->
  <ellipse cx="50" cy="105" rx="8" ry="4" fill="#868e96"/>
  <ellipse cx="50" cy="105" rx="4" ry="2" fill="#495057"/>
  
  <!-- OCR扫描框 -->
  <rect x="32" y="33" width="46" height="42" fill="none" stroke="#007bff" stroke-width="1.5" stroke-dasharray="3,2" opacity="0.7"/>
  
  <!-- 扫描角标 -->
  <path d="M 32 33 L 37 33 L 37 35 L 34 35 L 34 38 L 32 38 Z" fill="#007bff" opacity="0.8"/>
  <path d="M 76 33 L 76 38 L 74 38 L 74 35 L 71 35 L 71 33 Z" fill="#007bff" opacity="0.8"/>
  <path d="M 32 75 L 32 70 L 34 70 L 34 73 L 37 73 L 37 75 Z" fill="#007bff" opacity="0.8"/>
  <path d="M 78 75 L 73 75 L 73 73 L 76 73 L 76 70 L 78 70 Z" fill="#007bff" opacity="0.8"/>
  
  <!-- 光学识别光线效果 -->
  <line x1="85" y1="40" x2="92" y2="33" stroke="#17a2b8" stroke-width="2" opacity="0.6"/>
  <line x1="85" y1="50" x2="95" y2="50" stroke="#17a2b8" stroke-width="2" opacity="0.6"/>
  <line x1="85" y1="60" x2="92" y2="67" stroke="#17a2b8" stroke-width="2" opacity="0.6"/>
  
  <!-- 小装饰点 -->
  <circle cx="95" cy="35" r="1.5" fill="#17a2b8" opacity="0.5"/>
  <circle cx="98" cy="50" r="1.5" fill="#17a2b8" opacity="0.5"/>
  <circle cx="95" cy="65" r="1.5" fill="#17a2b8" opacity="0.5"/>
</svg>